<?xml version="1.0" standalone="no"?>
<!DOCTYPE svg PUBLIC "-//W3C//DTD SVG 20010904//EN"
 "http://www.w3.org/TR/2001/REC-SVG-20010904/DTD/svg10.dtd">
<svg version="1.0" xmlns="http://www.w3.org/2000/svg"
 width="115.000000pt" height="134.000000pt" viewBox="0 0 115.000000 134.000000"
 preserveAspectRatio="xMidYMid meet">

<g transform="translate(0.000000,134.000000) scale(0.100000,-0.100000)"
fill="#000000" stroke="none">
<path d="M479 1176 c-81 -22 -144 -74 -229 -191 -87 -121 -105 -165 -103 -254
1 -59 -4 -92 -29 -165 -35 -104 -34 -175 2 -246 45 -89 156 -126 213 -72 l25
24 3 -52 c4 -47 2 -53 -19 -61 -12 -5 -27 -20 -34 -34 -17 -38 3 -55 69 -55
83 0 93 9 91 80 -2 76 11 92 71 88 l46 -3 0 -68 c0 -56 3 -71 19 -83 20 -14
101 -19 130 -8 24 9 19 50 -9 72 -22 18 -24 24 -18 71 7 59 18 63 68 25 84
-64 201 -6 235 115 16 57 12 147 -9 209 -11 32 -25 96 -30 143 -22 174 -99
321 -212 404 -94 69 -180 88 -280 61z m232 -197 c56 -19 96 -56 124 -114 92
-187 -94 -327 -240 -181 -92 92 -76 245 30 292 37 16 44 17 86 3z m-327 -13
c56 -23 80 -100 53 -173 -46 -125 -175 -196 -242 -133 -21 20 -25 32 -25 80 0
68 13 110 53 168 44 65 98 84 161 58z m99 -277 c14 -6 30 -22 36 -36 10 -22 8
-25 -26 -39 -21 -8 -51 -21 -67 -29 -16 -9 -31 -14 -33 -11 -9 9 19 88 38 107
22 22 21 22 52 8z m-36 -555 c9 -24 -11 -36 -66 -42 -47 -4 -51 -3 -51 16 0
27 25 41 73 42 25 0 40 -5 44 -16z m263 -2 c29 -24 19 -42 -23 -42 -56 0 -77
10 -77 36 0 21 5 24 39 24 23 0 48 -8 61 -18z"/>
<path d="M663 863 c-23 -9 -14 -24 11 -17 13 3 27 1 31 -6 8 -13 -22 -50 -42
-50 -21 0 -15 -18 12 -36 43 -28 94 9 79 59 -14 47 -50 67 -91 50z"/>
<path d="M293 863 c9 -2 17 -10 17 -17 0 -19 -37 -49 -50 -41 -8 5 -11 -1 -8
-16 2 -15 13 -27 30 -33 23 -8 32 -6 53 14 27 25 33 68 13 88 -7 7 -26 11 -42
11 -17 -1 -23 -3 -13 -6z"/>
</g>
</svg>
